<svg xmlns="http://www.w3.org/2000/svg" version="1.1" width="512px" height="512px" style="shape-rendering:geometricPrecision; text-rendering:geometricPrecision; image-rendering:optimizeQuality; fill-rule:evenodd; clip-rule:evenodd" xmlns:xlink="http://www.w3.org/1999/xlink">
    <g><path style="opacity:0.971" fill="#333333" d="M 511.5,174.5 C 511.5,179.833 511.5,185.167 511.5,190.5C 507.314,204.611 497.981,213.278 483.5,216.5C 483.666,224.174 483.5,231.841 483,239.5C 481.992,241.259 480.492,242.426 478.5,243C 462.349,243.008 449.516,236.508 440,223.5C 434.3,229.434 427.466,233.434 419.5,235.5C 419.666,245.506 419.5,255.506 419,265.5C 417.196,268.817 414.363,270.15 410.5,269.5C 399.432,269.092 389.932,265.092 382,257.5C 381.667,269.5 381.333,281.5 381,293.5C 380.333,296.833 378.333,298.833 375,299.5C 355.281,297.944 341.114,288.277 332.5,270.5C 327.188,271.276 321.855,271.943 316.5,272.5C 316.839,277.93 316.339,283.264 315,288.5C 311.333,292.5 307.667,292.5 304,288.5C 302.675,283.599 302.175,278.599 302.5,273.5C 298.652,273.24 294.985,273.906 291.5,275.5C 281.898,305.604 261.564,323.438 230.5,329C 212.824,329.167 195.157,329.667 177.5,330.5C 168.568,357.463 159.734,384.463 151,411.5C 138.328,440.524 116.495,451.024 85.5,443C 59.8039,430.775 49.6372,410.608 55,382.5C 60.4652,365.104 66.1318,347.771 72,330.5C 80.0281,306.032 77.0281,283.032 63,261.5C 47.8961,246.634 37.3961,228.968 31.5,208.5C 16.3154,209.259 5.64869,202.926 -0.5,189.5C -0.5,184.833 -0.5,180.167 -0.5,175.5C 1.61447,170.038 4.9478,165.372 9.5,161.5C -1.24528,147.344 -1.07861,133.344 10,119.5C 22.6194,108.913 36.1194,107.747 50.5,116C 53.3777,118.709 56.0443,121.542 58.5,124.5C 113.526,84.9095 174.86,69.4095 242.5,78C 251.139,78.9471 259.639,80.4471 268,82.5C 268.173,77.4164 268.839,72.4164 270,67.5C 272.497,65.5218 275.331,65.0218 278.5,66C 279.667,66.5 280.5,67.3333 281,68.5C 282.022,74.1189 282.855,79.7855 283.5,85.5C 289.761,87.2722 295.928,89.2722 302,91.5C 302.048,85.6858 302.881,80.0192 304.5,74.5C 310.109,70.9555 313.943,72.2888 316,78.5C 316.17,84.5275 316.67,90.5275 317.5,96.5C 322.074,98.3712 326.574,100.371 331,102.5C 337.969,79.5343 353.469,68.0343 377.5,68C 379.049,69.214 380.215,70.714 381,72.5C 381.333,84.8333 381.667,97.1667 382,109.5C 391.717,100.039 403.217,96.2053 416.5,98C 417.701,98.9025 418.535,100.069 419,101.5C 419.5,110.827 419.666,120.161 419.5,129.5C 427.509,131.673 434.509,135.673 440.5,141.5C 450.664,128.606 463.998,122.772 480.5,124C 481.333,124.833 482.167,125.667 483,126.5C 483.5,133.826 483.666,141.159 483.5,148.5C 492.826,150.246 500.326,154.912 506,162.5C 508.162,166.481 509.995,170.481 511.5,174.5 Z M 270.5,275.5 C 272.857,275.337 275.19,275.503 277.5,276C 268.05,298.387 251.384,311.721 227.5,316C 212.504,316.5 197.504,316.667 182.5,316.5C 183.986,307.192 188.319,299.525 195.5,293.5C 202.977,299.143 210.311,304.976 217.5,311C 222.673,313.788 226.506,312.622 229,307.5C 229.5,298.173 229.666,288.839 229.5,279.5C 243.336,278.432 257.002,277.099 270.5,275.5 Z"/></g>
    <g><path style="opacity:1" fill="#cbcbcb" d="M 363.5,81.5 C 365.167,81.5 366.833,81.5 368.5,81.5C 368.5,149.5 368.5,217.5 368.5,285.5C 354.383,281.881 345.883,272.881 343,258.5C 342.333,207.5 342.333,156.5 343,105.5C 346.105,94.2341 352.939,86.2341 363.5,81.5 Z"/></g>
    <g><path style="opacity:1" fill="#45ca28" d="M 302.5,104.5 C 302.5,122.167 302.5,139.833 302.5,157.5C 295.5,157.5 288.5,157.5 281.5,157.5C 281.666,151.158 281.5,144.825 281,138.5C 277.333,134.5 273.667,134.5 270,138.5C 269.5,145.158 269.334,151.825 269.5,158.5C 249.164,158.333 228.831,158.5 208.5,159C 206.329,160.174 205.329,162.007 205.5,164.5C 200.5,164.5 195.5,164.5 190.5,164.5C 190.288,161.288 188.621,159.288 185.5,158.5C 168.5,157.833 151.5,157.167 134.5,156.5C 134.955,153.797 135.622,151.13 136.5,148.5C 136.098,146.7 135.431,145.033 134.5,143.5C 137.211,139.788 140.544,136.788 144.5,134.5C 147.682,136.956 151.015,137.123 154.5,135C 158.221,132.473 162.221,130.473 166.5,129C 170.5,125.667 170.5,122.333 166.5,119C 154.724,115.712 145.724,108.879 139.5,98.5C 155.72,93.0896 172.386,89.9229 189.5,89C 215.799,87.1816 241.799,89.1816 267.5,95C 269.296,104.578 270.129,114.411 270,124.5C 274.163,128.747 277.829,128.414 281,123.5C 281.168,115.147 281.668,106.813 282.5,98.5C 289.131,100.711 295.797,102.711 302.5,104.5 Z"/></g>
    <g><path style="opacity:1" fill="#fbfefa" d="M 190.5,94.5 C 213.718,93.7773 236.718,95.6107 259.5,100C 262.29,102.21 263.123,105.044 262,108.5C 260.745,110.594 258.912,111.594 256.5,111.5C 239.822,108.281 222.988,106.614 206,106.5C 188.702,107.069 171.536,108.569 154.5,111C 150.313,106.54 150.98,102.873 156.5,100C 167.872,97.5396 179.205,95.7063 190.5,94.5 Z"/></g>
    <g><path style="opacity:1" fill="#fdfdfd" d="M 355.5,99.5 C 358.652,98.9586 361.152,99.9586 363,102.5C 363.667,108.5 363.667,114.5 363,120.5C 360.833,123.287 357.999,124.12 354.5,123C 353.107,121.829 352.273,120.329 352,118.5C 351.333,113.5 351.333,108.5 352,103.5C 353.376,102.295 354.542,100.962 355.5,99.5 Z"/></g>
    <g><path style="opacity:1" fill="#f04125" d="M 144.5,134.5 C 140.544,136.788 137.211,139.788 134.5,143.5C 131.458,141.968 128.624,142.301 126,144.5C 123.798,148.606 122.298,152.94 121.5,157.5C 105.167,157.5 88.8333,157.5 72.5,157.5C 73.7251,144.823 77.7251,133.157 84.5,122.5C 97.5742,114.38 111.408,107.714 126,102.5C 129.682,105.525 132.682,109.191 135,113.5C 138.446,117.548 142.446,120.882 147,123.5C 145.42,125.352 144.253,127.685 143.5,130.5C 143.846,131.849 144.179,133.183 144.5,134.5 Z"/></g>
    <g><path style="opacity:1" fill="#41b229" d="M 302.5,104.5 C 303.497,122.326 303.83,140.326 303.5,158.5C 295.981,158.825 288.648,158.492 281.5,157.5C 288.5,157.5 295.5,157.5 302.5,157.5C 302.5,139.833 302.5,122.167 302.5,104.5 Z"/></g>
    <g><path style="opacity:1" fill="#43c827" d="M 315.5,109.5 C 320.141,111.485 324.807,113.485 329.5,115.5C 330.499,129.818 330.833,144.151 330.5,158.5C 325.5,158.5 320.5,158.5 315.5,158.5C 315.5,142.167 315.5,125.833 315.5,109.5 Z"/></g>
    <g><path style="opacity:1" fill="#cacaca" d="M 402.5,110.5 C 403.833,110.5 405.167,110.5 406.5,110.5C 406.833,159.171 406.5,207.838 405.5,256.5C 392.762,252.596 384.596,244.263 381,231.5C 380.333,199.5 380.333,167.5 381,135.5C 384.444,123.895 391.61,115.561 402.5,110.5 Z"/></g>
    <g><path style="opacity:1" fill="#ed4025" d="M 25.5,123.5 C 30.5988,123.175 35.5988,123.675 40.5,125C 43.5125,126.679 45.8459,129.013 47.5,132C 39.7181,139.947 31.7181,147.781 23.5,155.5C 14.5392,149.439 12.3725,141.439 17,131.5C 19.5377,128.488 22.371,125.821 25.5,123.5 Z"/></g>
    <g><path style="opacity:1" fill="#b1321d" d="M 84.5,122.5 C 77.7251,133.157 73.7251,144.823 72.5,157.5C 88.8333,157.5 105.167,157.5 121.5,157.5C 94.003,158.664 66.3364,158.83 38.5,158C 52.5677,144.421 67.9011,132.587 84.5,122.5 Z"/></g>
    <g><path style="opacity:1" fill="#fdfdfd" d="M 394.5,128.5 C 397.505,128.253 400.005,129.253 402,131.5C 402.667,137.167 402.667,142.833 402,148.5C 399.833,151.287 396.999,152.12 393.5,151C 392.299,150.097 391.465,148.931 391,147.5C 390.333,142.5 390.333,137.5 391,132.5C 392.376,131.295 393.542,129.962 394.5,128.5 Z"/></g>
    <g><path style="opacity:1" fill="#fdfdfd" d="M 355.5,137.5 C 358.695,136.961 361.195,137.961 363,140.5C 363.667,180.833 363.667,221.167 363,261.5C 360.833,264.287 357.999,265.12 354.5,264C 353.299,263.097 352.465,261.931 352,260.5C 351.333,220.833 351.333,181.167 352,141.5C 352.69,139.65 353.856,138.316 355.5,137.5 Z"/></g>
    <g><path style="opacity:1" fill="#cbcbcb" d="M 469.5,137.5 C 470.498,167.995 470.831,198.662 470.5,229.5C 457.606,226.44 449.439,218.44 446,205.5C 445.333,190.167 445.333,174.833 446,159.5C 450.194,148.135 458.027,140.802 469.5,137.5 Z"/></g>
    <g><path style="opacity:1" fill="#214e59" d="M 418.5,142.5 C 425.845,144.683 431.178,149.183 434.5,156C 433.369,174.512 433.202,193.012 434,211.5C 429.795,216.017 424.962,219.683 419.5,222.5C 418.5,195.842 418.167,169.175 418.5,142.5 Z"/></g>
    <g><path style="opacity:1" fill="#fefefe" d="M 457.5,152.5 C 461.013,151.876 463.847,152.876 466,155.5C 466.667,174.167 466.667,192.833 466,211.5C 462.38,215.487 458.713,215.487 455,211.5C 454.333,192.833 454.333,174.167 455,155.5C 456.045,154.627 456.878,153.627 457.5,152.5 Z"/></g>
    <g><path style="opacity:1" fill="#828282" d="M 469.5,137.5 C 469.56,136.957 469.893,136.624 470.5,136.5C 471.83,167.664 471.83,198.664 470.5,229.5C 470.831,198.662 470.498,167.995 469.5,137.5 Z"/></g>
    <g><path style="opacity:1" fill="#3d912c" d="M 134.5,156.5 C 151.5,157.167 168.5,157.833 185.5,158.5C 168.154,158.833 150.821,158.5 133.5,157.5C 133.624,156.893 133.957,156.56 134.5,156.5 Z"/></g>
    <g><path style="opacity:1" fill="#204f5a" d="M 483.5,161.5 C 498.775,168.147 502.942,179.147 496,194.5C 492.883,198.454 489.05,201.454 484.5,203.5C 483.501,189.516 483.167,175.516 483.5,161.5 Z"/></g>
    <g><path style="opacity:1" fill="#204f5a" d="M 190.5,164.5 C 195.5,164.5 200.5,164.5 205.5,164.5C 205.393,166.903 206.393,168.736 208.5,170C 249.165,170.5 289.832,170.667 330.5,170.5C 330.5,178.5 330.5,186.5 330.5,194.5C 302.498,194.333 274.498,194.5 246.5,195C 244.393,196.264 243.393,198.097 243.5,200.5C 240.167,200.5 236.833,200.5 233.5,200.5C 233.607,198.097 232.607,196.264 230.5,195C 160.167,194.667 89.8333,194.333 19.5,194C 8.95441,186.293 8.95441,178.626 19.5,171C 74.8333,170.667 130.167,170.333 185.5,170C 188.079,168.924 189.746,167.091 190.5,164.5 Z"/></g>
    <g><path style="opacity:1" fill="#fdfdfd" d="M 394.5,165.5 C 397.652,164.959 400.152,165.959 402,168.5C 402.667,189.833 402.667,211.167 402,232.5C 399.833,235.287 396.999,236.12 393.5,235C 392.299,234.097 391.465,232.931 391,231.5C 390.333,210.5 390.333,189.5 391,168.5C 392.145,167.364 393.312,166.364 394.5,165.5 Z"/></g>
    <g><path style="opacity:1" fill="#43cb27" d="M 233.5,200.5 C 236.833,200.5 240.167,200.5 243.5,200.5C 243.712,203.712 245.379,205.712 248.5,206.5C 254.979,207.491 261.646,207.824 268.5,207.5C 268.5,226.167 268.5,244.833 268.5,263.5C 249.757,264.673 231.09,266.506 212.5,269C 192.161,275.339 178.328,288.506 171,308.5C 160,342.167 149,375.833 138,409.5C 133.206,421.145 124.706,428.478 112.5,431.5C 105.662,428.835 100.495,424.168 97,417.5C 91.4999,406.674 90.1666,395.34 93,383.5C 99.6704,362.822 106.337,342.156 113,321.5C 115.079,309.906 114.912,298.406 112.5,287C 112.728,286.601 113.062,286.435 113.5,286.5C 117.849,288.464 121.349,287.464 124,283.5C 123.344,269.645 128.511,258.478 139.5,250C 144.69,246.135 149.857,242.302 155,238.5C 155.667,236.5 155.667,234.5 155,232.5C 149.296,229.708 143.796,226.541 138.5,223C 134.087,219 131.087,214.167 129.5,208.5C 162.5,207.833 195.5,207.167 228.5,206.5C 231.966,206.032 233.632,204.032 233.5,200.5 Z"/></g>
    <g><path style="opacity:1" fill="#40ad29" d="M 228.5,206.5 C 195.5,207.167 162.5,207.833 129.5,208.5C 128.957,208.44 128.624,208.107 128.5,207.5C 161.827,206.5 195.16,206.167 228.5,206.5 Z"/></g>
    <g><path style="opacity:1" fill="#b4311c" d="M 116.5,207.5 C 101.167,207.5 85.8333,207.5 70.5,207.5C 72.2358,215.538 75.0692,223.204 79,230.5C 84.9009,239.737 91.5675,248.404 99,256.5C 102.017,260.534 104.517,264.867 106.5,269.5C 95.8784,266.292 85.5451,262.292 75.5,257.5C 68.0911,248.347 60.9244,239.014 54,229.5C 50.0076,222.516 46.8409,215.183 44.5,207.5C 68.6633,206.171 92.6633,206.171 116.5,207.5 Z"/></g>
    <g><path style="opacity:1" fill="#f04025" d="M 116.5,207.5 C 119.208,219.878 125.874,229.545 136.5,236.5C 124.257,245.75 115.923,257.75 111.5,272.5C 109.604,271.725 107.937,270.725 106.5,269.5C 104.517,264.867 102.017,260.534 99,256.5C 91.5675,248.404 84.9009,239.737 79,230.5C 75.0692,223.204 72.2358,215.538 70.5,207.5C 85.8333,207.5 101.167,207.5 116.5,207.5 Z"/></g>
    <g><path style="opacity:1" fill="#40b229" d="M 248.5,206.5 C 255.5,206.5 262.5,206.5 269.5,206.5C 269.83,225.674 269.497,244.674 268.5,263.5C 268.5,244.833 268.5,226.167 268.5,207.5C 261.646,207.824 254.979,207.491 248.5,206.5 Z"/></g>
    <g><path style="opacity:1" fill="#43ca27" d="M 281.5,206.5 C 288.833,206.5 296.167,206.5 303.5,206.5C 303.5,224.5 303.5,242.5 303.5,260.5C 296.144,261.014 288.81,261.681 281.5,262.5C 281.5,243.833 281.5,225.167 281.5,206.5 Z"/></g>
    <g><path style="opacity:1" fill="#43ca27" d="M 315.5,206.5 C 320.5,206.5 325.5,206.5 330.5,206.5C 330.5,223.833 330.5,241.167 330.5,258.5C 325.493,258.751 320.493,259.084 315.5,259.5C 315.5,241.833 315.5,224.167 315.5,206.5 Z"/></g>
    <g><path style="opacity:1" fill="#33971d" d="M 113.5,286.5 C 113.062,286.435 112.728,286.601 112.5,287C 114.912,298.406 115.079,309.906 113,321.5C 106.337,342.156 99.6704,362.822 93,383.5C 90.1666,395.34 91.4999,406.674 97,417.5C 100.495,424.168 105.662,428.835 112.5,431.5C 90.583,435.951 75.4163,427.618 67,406.5C 64.8569,398.404 65.1902,390.404 68,382.5C 75.4745,361.41 82.1411,340.077 88,318.5C 88.6667,309.167 88.6667,299.833 88,290.5C 87.1257,285.112 85.6257,279.945 83.5,275C 93.8103,277.987 103.81,281.82 113.5,286.5 Z"/></g>
    <g><path style="opacity:1" fill="#214e59" d="M 211.5,281.5 C 213.167,281.5 214.833,281.5 216.5,281.5C 216.666,285.514 216.499,289.514 216,293.5C 212.5,290.667 209,287.833 205.5,285C 207.727,284.059 209.727,282.892 211.5,281.5 Z"/></g>
</svg>
